<svg width="32" height="32" xmlns="http://www.w3.org/2000/svg">

 <g>
  <title>background</title>
  <rect fill="none" id="canvas_background" height="402" width="582" y="-1" x="-1"/>
 </g>
 <g>
  <title>Layer 1</title>
  <path id="svg_3" fill="#c9a3b8" d="m16,0c-8.837,0 -16,7.163 -16,16c0,8.836 7.163,16 16,16s16,-7.164 16,-16c0,-8.837 -7.163,-16 -16,-16z"/>
  <path id="svg_5" fill="#FFFFFF" d="m24.959,11.076l-5.76,-2.88c-0.026,-0.013 -0.055,-0.019 -0.083,-0.02c-0.002,0 -0.004,-0.001 -0.006,-0.001c-0.07,0 -0.14,0.035 -0.177,0.096l-3.55,5.769l3.963,6.44l5.669,-9.212c0.041,-0.067 0.016,-0.156 -0.056,-0.192z"/>
  <polygon id="svg_6" points="13.505,12.013 13.505,18.23 19.031,20.992   " fill="#FFFFFF"/>
  <path id="svg_7" fill="#FFFFFF" d="m19.514,21.23l5.074,2.537c0.277,0.138 0.504,-0.002 0.504,-0.311l0,-11.29l-5.578,9.064z"/>
  <path id="svg_8" fill="#FFFFFF" d="m12.895,11.105l-5.315,-2.657l-0.336,-0.168c-0.048,-0.024 -0.094,-0.036 -0.136,-0.036c-0.059,0 -0.109,0.023 -0.145,0.066c-0.034,0.042 -0.055,0.102 -0.055,0.177l0,12.13c0,0.206 0.151,0.451 0.336,0.543l5.222,2.611c0.073,0.036 0.142,0.053 0.204,0.053c0.176,0 0.299,-0.136 0.299,-0.365l0,-12.233c0.001,-0.051 -0.028,-0.098 -0.074,-0.121z"/>
 </g>
</svg>